<mxfile host="app.diagrams.net" modified="2023-10-05T11:43:46.816Z" agent="Mozilla/5.0 (Windows NT 10.0; Win64; x64) AppleWebKit/537.36 (KHTML, like Gecko) Chrome/117.0.0.0 Safari/537.36" version="22.0.2" etag="TlwWYOKC6W-I09DD-r1n" type="github">
  <diagram name="Страница — 1" id="c94bClqKbgEephbSM4M7">
    <mxGraphModel>
      <root>
        <mxCell id="0" />
        <mxCell id="1" parent="0" />
      </root>
    </mxGraphModel>
  </diagram>
</mxfile>
